<svg width="1202" height="793" viewBox="0 0 1202 793" fill="none" xmlns="http://www.w3.org/2000/svg">
<path d="M880.097 1.35426C839.163 4.82093 797.297 16.0209 762.763 32.6876C692.897 66.4209 647.563 122.554 633.43 192.821C631.963 200.421 629.83 217.488 628.763 230.821C626.497 258.821 625.297 266.688 620.63 282.821C604.763 339.088 558.763 391.221 477.697 444.554C439.163 469.888 403.163 488.688 334.763 519.221C253.297 555.754 179.697 595.621 131.163 629.888C124.363 634.688 118.763 638.021 118.763 637.354C118.763 636.821 125.297 622.821 133.297 606.421C148.097 575.888 177.697 514.288 214.363 437.221C225.83 413.354 241.43 380.688 249.163 364.554C256.763 348.421 264.763 331.621 266.763 327.221C270.097 319.754 279.163 300.821 333.03 187.888C360.763 129.754 367.83 115.888 369.563 115.888C370.363 115.888 381.297 137.088 393.963 162.821C429.297 234.821 502.763 381.754 504.097 383.088C505.697 384.688 515.963 376.554 533.697 359.621L547.963 345.888L469.563 189.488C426.363 103.488 389.697 31.6209 388.097 29.8876C377.163 18.1543 359.697 18.5543 349.03 30.6876C343.563 36.6876 329.963 64.5543 260.363 211.221C252.363 228.021 231.163 272.421 213.43 309.888C195.563 347.221 178.497 383.354 175.297 390.154C172.097 396.954 159.163 423.621 146.63 449.488C134.097 475.354 114.897 515.088 104.097 537.888C83.8299 580.554 55.1633 639.621 20.2299 711.088C-1.9034 756.288 -2.83674 759.221 3.16326 768.021C7.2966 774.288 19.4299 780.021 30.0966 780.821C43.2966 781.888 46.2299 780.288 60.3633 764.288C67.1633 756.421 81.8299 741.754 92.7633 731.488C161.43 667.221 234.497 623.088 374.763 560.554C409.163 545.221 456.497 521.221 479.83 507.354C556.23 461.888 621.83 402.021 649.43 352.821C651.697 348.688 653.83 345.221 654.097 345.221C654.363 345.221 656.23 348.421 658.497 352.154C668.763 370.554 690.763 395.754 710.897 412.554C744.23 440.288 777.03 459.221 862.363 499.754C905.697 520.288 923.43 530.554 935.83 542.421C956.23 561.888 966.763 588.554 965.03 616.554C964.097 632.554 955.697 658.288 947.03 672.421C930.897 698.288 905.83 718.288 881.43 724.554C854.897 731.354 824.097 726.421 794.897 710.421C748.897 685.221 703.963 642.688 676.497 598.554C673.563 593.754 656.63 560.821 638.897 525.221C621.163 489.754 606.23 460.154 605.563 459.488C604.63 458.554 576.497 480.421 562.363 493.221C560.897 494.554 619.163 611.088 629.297 627.354C643.43 649.754 662.363 673.088 683.963 694.688C706.363 717.088 718.497 727.221 739.43 741.221C771.697 762.688 792.363 772.154 825.43 780.554C911.43 802.288 1002.1 794.688 1072.1 760.021C1119.96 736.154 1158.63 699.221 1179.83 656.554C1209.16 597.621 1209.16 523.888 1179.96 462.554C1168.5 438.554 1155.3 420.154 1134.9 399.888C1116.63 381.621 1103.7 371.621 1079.03 356.688C1065.16 348.154 1025.56 327.221 1024.9 328.021C1023.7 329.621 1002.5 377.354 1002.9 377.754C1003.16 377.888 1010.36 381.754 1018.76 386.154C1053.83 404.421 1074.63 419.221 1097.43 442.421C1116.1 461.354 1124.9 474.288 1133.3 494.821C1149.43 534.288 1150.5 580.954 1136.1 618.554C1130.63 632.554 1118.1 653.221 1107.56 665.488C1086.63 689.754 1051.7 711.621 1014.23 723.754C999.03 728.688 971.697 735.088 969.43 734.288C968.763 734.021 973.03 727.621 978.897 720.021C1009.3 680.288 1021.56 643.754 1019.7 599.221C1017.7 551.354 996.363 513.754 955.83 486.688C949.03 482.154 928.497 470.954 910.097 462.021C891.83 452.954 860.23 437.488 840.097 427.488C786.097 401.088 759.163 383.221 733.163 357.088C719.563 343.221 705.43 323.488 698.897 309.088C670.897 246.954 683.83 171.088 730.897 122.954C764.097 88.8209 804.097 69.6209 862.763 59.6209C885.43 55.7543 936.897 55.3543 960.097 58.9543C1025.3 69.0876 1079.96 94.0209 1132.76 137.754C1144.23 147.221 1144.9 147.621 1147.3 145.488C1150.1 142.954 1169.56 118.154 1175.16 110.021L1178.9 104.554L1172.5 98.8209C1157.56 85.4876 1124.63 61.8876 1106.76 51.6209C1039.03 12.8209 957.43 -5.3124 880.097 1.35426Z" fill="black"/>
<path d="M942.763 148.421C855.963 200.688 797.43 236.688 794.497 239.488C790.097 243.621 788.097 251.488 788.097 264.554C788.097 276.554 790.097 285.488 793.43 288.554C797.963 292.554 955.163 386.688 956.63 386.154C958.23 385.621 959.43 335.888 958.097 328.421C957.43 324.554 953.83 322.021 908.763 295.088C877.43 276.288 860.23 265.221 860.363 264.021C860.63 262.954 882.63 248.821 909.43 232.554L958.097 203.088L958.497 172.554C958.63 155.754 958.363 141.621 957.697 140.954C957.163 140.421 950.363 143.754 942.763 148.421Z" fill="black"/>
</svg>
