<svg xmlns="http://www.w3.org/2000/svg" viewBox="0 0 360.19 227.7"><defs><style>.cls-1{fill:#08290e;fill-rule:evenodd;}.cls-2{fill:#ff4e01;}</style></defs><title>Recurso 2Brand Naranja</title><g id="Capa_2" data-name="Capa 2"><g id="Capa_1-2" data-name="Capa 1"><path class="cls-1" d="M218.29,33.62c.43-4.86,1.13-10.76,6.76-16.4-6.74.15-11.44,3.22-15.49,6.28-9.93,8.65-17.67,26.44-24.58,37.59A82.12,82.12,0,0,1,175,74.45c-1.42,1.53-2.16,2.09-3.55,3.38l-.42.46a7.3,7.3,0,0,0-2,1.6,23.49,23.49,0,0,0-3,1.94,41.63,41.63,0,0,0-3.66,2l-4,1.69a2.05,2.05,0,0,0,1,1,20.12,20.12,0,0,0,3,2.66c1.67,1.38,8.59,6.74,10,7.18a5.5,5.5,0,0,0,2,1.18,9.94,9.94,0,0,0,3.21,1.52,12.1,12.1,0,0,0,3.21,1l1.69.35c4.94,1.48,11.94-1.15,15.12-3.32a155.26,155.26,0,0,0,20.88-17.81c4.91-4.93,14-15.35,16.35-22.31A21.75,21.75,0,0,0,232,38a10.91,10.91,0,0,1-1.79-3.11c-.87-2.93.53-5.66,1.82-7.48,2.6-3.68,6.45-6,10.58-8.78-10.71-1-23.64,9.1-24.31,15"/><path class="cls-1" d="M152.33,67.32c-.43,4.86-1.13,10.76-6.76,16.4,6.74-.15,11.44-3.22,15.49-6.27C171,68.79,178.73,51,185.64,39.86a81.77,81.77,0,0,1,10-13.37c1.43-1.53,2.17-2.09,3.56-3.38l.41-.46a7.12,7.12,0,0,0,2-1.6,24.52,24.52,0,0,0,3-1.93c.64-.29,3.13-1.68,3.66-2.06l4-1.69a2.05,2.05,0,0,0-1-1,20,20,0,0,0-3-2.66c-1.67-1.37-8.6-6.74-10-7.18a5.42,5.42,0,0,0-2-1.18,10.16,10.16,0,0,0-3.21-1.52,11.64,11.64,0,0,0-3.21-1L188,.43C183-1,176,1.58,172.85,3.75A155.26,155.26,0,0,0,152,21.56c-4.91,4.94-14.05,15.35-16.35,22.32a21.77,21.77,0,0,0,3,19.1,10.91,10.91,0,0,1,1.79,3.11c.88,2.93-.53,5.67-1.81,7.48-2.61,3.68-6.45,6-10.59,8.78,10.72,1,23.64-9.1,24.31-15"/><path class="cls-1" d="M86,163.45C85,162.44,76.4,141,75.2,138h-8l0,50.19c6.11-.08,7.93-6.15,8.37-11.05.35-3.92-.28-17.07.27-18.75l.16-.33c1,3.54,6.56,16,7.84,20L88,177.8l6.15-15.55a45.22,45.22,0,0,1,2.18-5.13l.07,28.61,8.34-.44,0-47.32-8,0Z"/><path class="cls-1" d="M256.58,185.06l8.36.56,0-41.16a27.2,27.2,0,0,1,8,.51c4.95,1.65,3.66,10.83,2.06,12.83s-4.49,1.41-7.34,1.55a34.59,34.59,0,0,0,1.5,4.18l1.6,4.27c1.1,2.93,2.11,5.75,3.21,8.65,2.21,5.82,4.69,11.46,12.54,10.81l-8.91-22.79c2.8-1.95,5.78-2.47,6.88-8.63.8-4.48,0-9.56-2.09-12.65s-5.38-4.68-10.3-5.13c-4.43-.4-10.89-.17-15.49-.08Z"/><path class="cls-1" d="M157.23,137.72c-5.14.71-9.72,3.21-11.15,7.25-1.1,3.09-.63,21.13-.63,26.76,0,3.28.46,5.09,2.12,7.15,5.27,6.54,21.8,6,25.25-3,1.14-3,.63-13.71.63-17.71,0-5.74.93-12.54-2.29-16-2.81-3.06-8.29-5.14-13.93-4.36m.28,6.58c3.37-.88,6.84.41,7.48,3.16.33,1.42.12,18.92.12,21.91,0,4.23,0,6.24-3.71,7.23-3.21.85-6.85-.26-7.46-3.09-.33-1.56-.12-18.78-.12-21.88C153.82,147.44,153.64,145.31,157.51,144.3Z"/><path class="cls-1" d="M27.08,177.12l-8.34.74c-.13,3.73.21,5.85-2.16,7.69-2,1.52-5.7,2.18-7.15,0s-1-6-1-8.9V166.8c0-4.32-.63-15.82.9-18.87,1.34-2.63,5-2.72,7-1.53,2.57,1.57,2.26,3.86,2.48,7.57l8.3-.26C29,133.6,2.66,132.46.21,148.84c-.24,1.6-.29,33.89-.07,36.22.53,5.6,3.11,8.72,8.25,9.77A16.09,16.09,0,0,0,26,185.52c1.18-2.67,1.07-5.22,1.06-8.4"/><path class="cls-1" d="M30.13,192.3c1.46-.1,2.75-.31,4.17-.47l2-.25c.57-.07,1.66,0,2-.42.17-.21,7.39-34,8.22-37.67,2.09,6.73,5,26.45,7.63,31A8.3,8.3,0,0,0,63,188.63L51.7,144.47a65.23,65.23,0,0,0-1.64-6.39L43.17,138a60.28,60.28,0,0,0-1.7,6.62c-1.54,6.31-10.84,43.85-11.34,47.67"/><path class="cls-1" d="M112.63,184.66l8.39-.33,0-39.88c2.31-.16,6.42-.11,8.3.64,4.5,1.79,3.24,11.73,1.91,13.81s-4.43,1.89-7.47,1.83c.28,3.13,6.16,7.64,12.43,3.13,3.82-2.75,5.36-8.42,4.38-14.83-.88-5.73-3.86-9.1-9.06-10.45-3-.78-15.53-.94-18.84-.59Z"/><path class="cls-1" d="M226.29,183.45l24.9,1.25,0-5.88c-.09-.83.09-.35-.25-.73-.65-.36-14.37-.77-16.29-.8v-13c2.9,0,7.19.62,9.69-.24,2.11-.73,4.47-3,4.6-5.68l-14.19-.29-.11-13.86,16.49.06,0-6.29-24.82,0Z"/><path class="cls-1" d="M335.3,192.73l24.86,3.6,0-8.15-16.45-2.32c-.22-1.71-.07-25.74-.07-28.12,0-3.77.39-10.1-.58-13.36s-3.73-6.72-7.76-6.29Z"/><path class="cls-1" d="M204.39,182.8V163.75l14.39.19v-6.2l-14.28-.12-.11-13.5,16.47,0,0-6.12-24.85,0c-.21,1.42-.06,24.51-.05,26.5,0,3.56-.45,9.6.75,12.53,1,2.54,4.27,5.64,7.63,5.83"/><path class="cls-1" d="M287.25,144.76l9.63,0,0,43.53c4.93.27,6.82-.93,7.82-5.13,1.36-5.75-.06-30.59.59-38.23l9.61.08v-7L287.29,138Z"/><path class="cls-1" d="M318.83,190.69l8.37,1.06,0-53.73c-10.17.13-8.39,8.31-8.39,14.2Z"/><rect class="cls-2" x="114.57" y="218.51" width="131.05" height="9.19"/></g></g></svg>